<svg width="20" height="24" viewBox="0 0 20 24" fill="none" xmlns="http://www.w3.org/2000/svg">
<path d="M19.2857 4.14284H15.608L14.0902 1.60936C13.6652 0.965474 13.0089 0.571411 12.2589 0.571411H7.74107C6.99107 0.571411 6.29464 0.965474 5.91071 1.60936L4.39196 4.14284H0.714286C0.31808 4.14284 0 4.46114 0 4.85713V5.57141C0 5.96873 0.31808 6.2857 0.714286 6.2857H1.42857V20.5714C1.42857 22.1495 2.70759 23.4286 4.28571 23.4286H15.7143C17.2924 23.4286 18.5714 22.1495 18.5714 20.5714V6.2857H19.2857C19.683 6.2857 20 5.96873 20 5.57141V4.85713C20 4.46114 19.683 4.14284 19.2857 4.14284ZM7.67411 2.84284C7.71875 2.76471 7.80804 2.71427 7.90179 2.71427H12.0982C12.1931 2.71427 12.2824 2.76449 12.327 2.84262L13.1071 4.14284H6.89286L7.67411 2.84284ZM15.7143 21.2857H4.28571C3.89121 21.2857 3.57143 20.9659 3.57143 20.5714V6.2857H16.4286V20.5714C16.4286 20.9643 16.1071 21.2857 15.7143 21.2857ZM10 19.1428C10.3948 19.1428 10.7143 18.8234 10.7143 18.4286V9.14284C10.7143 8.74802 10.3948 8.42855 10 8.42855C9.60518 8.42855 9.28571 8.74998 9.28571 9.14284V18.4286C9.28571 18.8214 9.60714 19.1428 10 19.1428ZM6.42857 19.1428C6.82143 19.1428 7.14286 18.8214 7.14286 18.4286V9.14284C7.14286 8.74802 6.82339 8.42855 6.42857 8.42855C6.03375 8.42855 5.71429 8.74998 5.71429 9.14284V18.4286C5.71429 18.8214 6.03571 19.1428 6.42857 19.1428ZM13.5714 19.1428C13.9663 19.1428 14.2857 18.8234 14.2857 18.4286V9.14284C14.2857 8.74802 13.9663 8.42855 13.5714 8.42855C13.1766 8.42855 12.8571 8.74998 12.8571 9.14284V18.4286C12.8571 18.8214 13.1786 19.1428 13.5714 19.1428Z" fill="#FF0000"/>
</svg>
